<?xml version="1.0" encoding="utf-8"?>
<!-- Generator: Adobe Illustrator 15.0.0, SVG Export Plug-In . SVG Version: 6.00 Build 0)  -->
<!DOCTYPE svg PUBLIC "-//W3C//DTD SVG 1.1//EN" "http://www.w3.org/Graphics/SVG/1.1/DTD/svg11.dtd">
<svg version="1.1" id="Layer_1" xmlns="http://www.w3.org/2000/svg" xmlns:xlink="http://www.w3.org/1999/xlink" x="0px" y="0px"
	 width="960px" height="560px" viewBox="0 0 960 560" enable-background="new 0 0 960 560" xml:space="preserve">
<g>
	<defs>
		<rect id="SVGID_1_" width="960" height="560"/>
	</defs>
	<clipPath id="SVGID_2_">
		<use xlink:href="#SVGID_1_"  overflow="visible"/>
	</clipPath>
	<path clip-path="url(#SVGID_2_)" fill="#F2F2F2" d="M443.988,398.694c-9.038-42.482,0.451-75.795,0.451-124.428
		c0-48.613-24.141-70.644-54.611-70.644c-18.961,0-41.157,13.025-63.339,36.386c5.002-29.043,14.771-60.812,26.568-96.7
		c28.045-85.233-57.887-82.322-57.887-82.322c-35.253,50.167-46.187,140.57-49.586,218.867l-0.005-0.017v0.09
		c-0.365,8.442-0.644,16.735-0.859,24.826c-1.133,13.52-3.747,26.81-9.695,35.51c-15.853,24.981-50.066,68.249-81.313,68.249
		c-42.431,0-53.332-36.185-53.332-83.02c0-75.216,19.536-117.551,40.274-117.551c48.828,0,21.183,84.362,21.183,95.011
		c37.816,0,69.439-37.091,69.439-89.528c0-27.282-3.012-81.482-73.374-81.482c-101.018,0-157.046,131.761-157.046,228.523
		c0,71.174,35.655,149.365,133.133,149.365c39.612,0,83.738-30.646,108.844-77.56l0.005,0.066c1.384-2.676,3.769-3.027,4.888-1.785
		c18.011,134.052,98.62,111.509,128.491,81.653c-13.291-13.29-55.759-41.484-55.759-128.366c0-18.11-2.078-44.079-0.864-77.108
		c22.366-30.138,52.822-34.406,52.822-8.759c0,70.443-58.528,190.052,55.187,190.052c40.983,0,51.327-25.471,51.327-41.942
		C478.93,446.081,451.032,431.79,443.988,398.694"/>
	<path clip-path="url(#SVGID_2_)" fill="#F2F2F2" d="M812.447,81.628c-59.78,0-75.598,58.783-75.598,66.258
		c37.338,0,141.809,8.243,141.809,96.696c0,36.058-6.497,54.412-13.943,65.347c-9.896,13.82-19.419,15.42-24.554,11.729
		c-23.795-20.884-28.062-79.898-18.146-110.903c-62.868-22.542-69.348,38.932-69.348,76.527c0,8.306,1.143,21.98,4.387,37.066
		h-0.136c1.169,6.182-0.45,8.16-2.489,8.74c-1.148,0.032-2.346,0.265-3.452,0.164h-0.055c-18.047-1.69-31.087-21.697-31.087-67.383
		c0-21.917,12.117-58.267,12.117-81.098c-79.006,0-88.974,58.682-90.217,99.274c0,1.16,0.027,2.27,0.045,3.408
		c-3.16,48.604-23.054,86.174-62.322,86.174c-22.112,0-36.665-12.741-43.91-26.813c50.073-10.865,89.931-60.941,89.931-98.307
		c0-16.864-9.065-67.423-71.959-67.423c-75.859,0-96.448,103.724-96.448,154.299c0,47.32,19.226,118.63,114.068,118.63
		c37.498,0,73.236-35.41,92.325-76.83c14.219,21.4,33.607,30.374,52.651,30.374c25.788,0,44.739-17.663,58.216-37.515
		c12.958,21.08,33.263,37.515,64.77,37.515c74.461,0,119.558-84.054,119.558-139.395C958.659,165.879,905.378,81.628,812.447,81.628
		 M545.791,247.109c2.558-4.61,5.409-8.671,10.006-6.844c0.721,0.392,1.444,0.799,2.165,1.233c0.173,0.124,0.32,0.174,0.494,0.311
		v-0.005c14.99,9.303,27.339,28.908-28.259,84.505C530.197,296.002,537.767,263.639,545.791,247.109"/>
	<path clip-path="url(#SVGID_2_)" fill="#EDB829" d="M467.184,205.569c11.468-4.263,59.199-78.169,139.361-92.575
		c32.246-5.788,35.373,13.616,37.767,26.974c18.786-3.371,58.536-30.953,50.587-75.185c-7.941-44.232-55.53-37.588-71.987-34.627
		C565.657,44.256,415.592,214.839,467.184,205.569"/>
	<path clip-path="url(#SVGID_2_)" fill="#EDB829" d="M392.556,147.069c0-16.38,10.362-41.655,36.03-41.655
		c29.356,0,20.989,81.82,12.797,81.82C433.19,187.234,436.755,147.069,392.556,147.069"/>
	<path clip-path="url(#SVGID_2_)" fill="#EDB829" d="M467.184,205.569c11.468-4.263,59.199-78.169,139.361-92.575
		c32.246-5.788,35.373,13.616,37.767,26.974c18.786-3.371,58.536-30.953,50.587-75.185c-7.941-44.232-55.53-37.588-71.987-34.627
		C565.657,44.256,415.592,214.839,467.184,205.569"/>
	<path clip-path="url(#SVGID_2_)" fill="#EDB829" d="M392.556,147.069c0-16.38,10.362-41.655,36.03-41.655
		c29.356,0,20.989,81.82,12.797,81.82C433.19,187.234,436.755,147.069,392.556,147.069"/>
</g>
</svg>
